<svg id="Layer_1" data-name="Layer 1" xmlns="http://www.w3.org/2000/svg" viewBox="0 0 92.3 59.06"><title>icon-computer</title><path d="M259.82,445.49h74.67a2.8,2.8,0,0,0,2.8-2.8v-48a2.8,2.8,0,0,0-2.8-2.8H259.82a2.81,2.81,0,0,0-2.8,2.8v48a2.81,2.81,0,0,0,2.8,2.8Zm-.4-50.8a.4.4,0,0,1,.4-.4h74.67a.4.4,0,0,1,.4.4v48a.4.4,0,0,1-.4.4H259.82a.4.4,0,0,1-.4-.4Zm83.88,52.94v2.24a1.07,1.07,0,0,1-1.07,1.08H252.07a1.08,1.08,0,0,1-1.07-1.08v-2.24h37.91a1.51,1.51,0,0,0,1.44,1.08H304a1.51,1.51,0,0,0,1.45-1.08Zm0,0" transform="translate(-251 -391.89)"/></svg>