<svg id="Layer_1" data-name="Layer 1" xmlns="http://www.w3.org/2000/svg" viewBox="0 0 48 39.2"><title>icon-smart-tv</title><path d="M285,410.69h-2.34a1.63,1.63,0,0,0-1.63,1.63v2.34a1.63,1.63,0,0,0,1.63,1.63H285a1.63,1.63,0,0,0,1.63-1.63v-2.34a1.63,1.63,0,0,0-1.63-1.63Zm0,4a0,0,0,0,1,0,0l-2.37,0,0-2.37,2.37,0Zm0,0" transform="translate(-273 -401.89)"/><path d="M293.77,410.69h-2.34a1.63,1.63,0,0,0-1.63,1.63v2.34a1.63,1.63,0,0,0,1.63,1.63h2.34a1.63,1.63,0,0,0,1.63-1.63v-2.34a1.63,1.63,0,0,0-1.63-1.63Zm0,4a0,0,0,0,1,0,0l-2.37,0,0-2.37,2.37,0Zm0,0" transform="translate(-273 -401.89)"/><path d="M300.23,416.29h2.34a1.63,1.63,0,0,0,1.63-1.63v-2.34a1.63,1.63,0,0,0-1.63-1.63h-2.34a1.63,1.63,0,0,0-1.63,1.63v2.34a1.63,1.63,0,0,0,1.63,1.63Zm0-4,2.37,0v2.34a0,0,0,0,1,0,0l-2.37,0Zm0,0" transform="translate(-273 -401.89)"/><path d="M309,416.29h2.34a1.63,1.63,0,0,0,1.63-1.63v-2.34a1.63,1.63,0,0,0-1.63-1.63H309a1.63,1.63,0,0,0-1.63,1.63v2.34a1.63,1.63,0,0,0,1.63,1.63Zm0-4,2.37,0v2.34a0,0,0,0,1,0,0l-2.37,0Zm0,0" transform="translate(-273 -401.89)"/><path d="M285,419.49h-2.34a1.63,1.63,0,0,0-1.63,1.63v2.34a1.63,1.63,0,0,0,1.63,1.63H285a1.63,1.63,0,0,0,1.63-1.63v-2.34a1.63,1.63,0,0,0-1.63-1.63Zm0,4a0,0,0,0,1,0,0l-2.37,0,0-2.37,2.37,0Zm0,0" transform="translate(-273 -401.89)"/><path d="M293.77,419.49h-2.34a1.63,1.63,0,0,0-1.63,1.63v2.34a1.63,1.63,0,0,0,1.63,1.63h2.34a1.63,1.63,0,0,0,1.63-1.63v-2.34a1.63,1.63,0,0,0-1.63-1.63Zm0,4a0,0,0,0,1,0,0l-2.37,0,0-2.37,2.37,0Zm0,0" transform="translate(-273 -401.89)"/><path d="M300.23,425.09h2.34a1.63,1.63,0,0,0,1.63-1.63v-2.34a1.63,1.63,0,0,0-1.63-1.63h-2.34a1.63,1.63,0,0,0-1.63,1.63v2.34a1.63,1.63,0,0,0,1.63,1.63Zm0-4,2.37,0v2.34a0,0,0,0,1,0,0l-2.37,0Zm0,0" transform="translate(-273 -401.89)"/><path d="M309,425.09h2.34a1.63,1.63,0,0,0,1.63-1.63v-2.34a1.63,1.63,0,0,0-1.63-1.63H309a1.63,1.63,0,0,0-1.63,1.63v2.34a1.63,1.63,0,0,0,1.63,1.63Zm0-4,2.37,0v2.34a0,0,0,0,1,0,0l-2.37,0Zm0,0" transform="translate(-273 -401.89)"/><path d="M321,433.89v-32H273v32h23.2v3.2H285v4h24v-4H297.8v-3.2Zm-13.6,4.8v.8H286.6v-.8Zm-32.8-35.2h44.8v28.8H274.6Zm0,0" transform="translate(-273 -401.89)"/></svg>