<svg id="Layer_1" data-name="Layer 1" xmlns="http://www.w3.org/2000/svg" viewBox="0 0 48 40.8"><title>icon-office</title><path d="M318.59,408.09H317v-2.4h-8v2.4h-3.2v-4.63a2.57,2.57,0,0,0-2.57-2.57H290.77a2.57,2.57,0,0,0-2.57,2.57v4.63H285v-2.4h-8v2.4h-1.59A2.41,2.41,0,0,0,273,410.5v28.78a2.41,2.41,0,0,0,2.41,2.41h43.19a2.41,2.41,0,0,0,2.41-2.41V410.5a2.41,2.41,0,0,0-2.41-2.41Zm-8-.8h4.8v.8h-4.8Zm-20.8-3.83a1,1,0,0,1,1-1h12.47a1,1,0,0,1,1,1v4.63H289.8Zm-1.6,6.24H313v30.4H281v-30.4Zm-9.6-2.4h4.8v.8h-4.8Zm-4,32V410.5a.81.81,0,0,1,.8-.81h4v30.4h-4a.81.81,0,0,1-.8-.81Zm44.8,0a.81.81,0,0,1-.8.81h-4v-30.4h4a.81.81,0,0,1,.8.81Zm0,0" transform="translate(-273 -400.89)"/></svg>