<svg id="Layer_1" data-name="Layer 1" xmlns="http://www.w3.org/2000/svg" xmlns:xlink="http://www.w3.org/1999/xlink" viewBox="0 0 27.2 48"><defs><style>.cls-1{fill:none;}.cls-2{clip-path:url(#clip-path);}</style><clipPath id="clip-path" transform="translate(-283.4 -397.89)"><rect class="cls-1" x="273" y="397.89" width="48" height="48"/></clipPath></defs><title>icon-phone</title><path d="M307.07,397.89H286.92a3.53,3.53,0,0,0-3.52,3.52v41a3.53,3.53,0,0,0,3.52,3.52h20.15a3.53,3.53,0,0,0,3.52-3.52v-41a3.53,3.53,0,0,0-3.52-3.52ZM285,404.29h24v30.4H285Zm1.92-4.8h20.15a1.93,1.93,0,0,1,1.93,1.92v1.28H285v-1.28a1.92,1.92,0,0,1,1.92-1.92Zm20.15,44.8H286.92a1.92,1.92,0,0,1-1.92-1.92v-6.08h24v6.08a1.93,1.93,0,0,1-1.93,1.92Zm0,0" transform="translate(-283.4 -397.89)"/><path d="M297,437.09a3.2,3.2,0,1,0,3.2,3.2,3.2,3.2,0,0,0-3.2-3.2Zm0,4.8a1.6,1.6,0,1,1,1.6-1.6,1.6,1.6,0,0,1-1.6,1.6Zm0,0" transform="translate(-283.4 -397.89)"/><path d="M293.8,401.89H297a.8.8,0,1,0,0-1.6h-3.2a.8.8,0,0,0,0,1.6Zm0,0" transform="translate(-283.4 -397.89)"/><g class="cls-2"><path d="M299.4,401.89h.8a.8.8,0,1,0,0-1.6h-.8a.8.8,0,0,0,0,1.6Zm0,0" transform="translate(-283.4 -397.89)"/><path d="M276.84,402.68" transform="translate(-283.4 -397.89)"/></g></svg>