<svg id="Layer_1" data-name="Layer 1" xmlns="http://www.w3.org/2000/svg" xmlns:xlink="http://www.w3.org/1999/xlink" viewBox="0 0 46.4 46.69"><defs><style>.cls-1{fill:none;}.cls-2{clip-path:url(#clip-path);}</style><clipPath id="clip-path" transform="translate(-274 -398)"><rect class="cls-1" x="274" y="397.89" width="46.8" height="47.76"/></clipPath></defs><title>icon-home</title><g class="cls-2"><path d="M320.14,419.3l-6.95-6.45V402.29h-8v3.14l-8-7.43-22.94,21.3a.8.8,0,0,0,1.09,1.17L278,418v26.68h38.4V418l2.66,2.46a.79.79,0,0,0,.55.21.8.8,0,0,0,.54-1.39ZM306.8,403.89h4.8v7.48l-4.8-4.46Zm-14.4,39.2V426.24a.75.75,0,0,1,.75-.75h8.1a.75.75,0,0,1,.75.75v16.85Zm22.4,0H303.6V426.24a2.35,2.35,0,0,0-2.35-2.35h-8.1a2.35,2.35,0,0,0-2.35,2.35v16.85H279.6V416.53l17.6-16.34,11.43,10.61L313.2,415l1.6,1.49Zm0,0" transform="translate(-274 -398)"/></g></svg>